<svg xmlns="http://www.w3.org/2000/svg" width="88" height="80" fill="none" viewBox="0 0 88 80">
  <path fill="#81D8F7" d="M87.76 40.009c0-5.814-7.28-11.323-18.443-14.74 2.576-11.377 1.431-20.428-3.613-23.326C64.54 1.263 63.182.94 61.697.94v3.99c.823 0 1.484.161 2.039.465 2.433 1.395 3.488 6.708 2.665 13.541-.196 1.682-.518 3.453-.912 5.26-3.506-.859-7.334-1.52-11.359-1.95-2.415-3.31-4.92-6.315-7.442-8.944 5.832-5.42 11.306-8.39 15.027-8.39V.923c-4.92 0-11.36 3.506-17.87 9.588C37.332 4.465 30.892.995 25.973.995v3.989c3.703 0 9.194 2.951 15.026 8.336a84.488 84.488 0 0 0-7.388 8.926c-4.043.43-7.87 1.091-11.377 1.968a53.931 53.931 0 0 1-.93-5.188c-.84-6.833.197-12.146 2.612-13.56.536-.321 1.234-.464 2.057-.464v-3.99c-1.503 0-2.862.322-4.043 1.002-5.027 2.898-6.154 11.932-3.56 23.273C7.245 28.72 0 34.213 0 40.009c0 5.814 7.28 11.323 18.443 14.74-2.576 11.377-1.431 20.428 3.613 23.326 1.163.68 2.522 1.002 4.025 1.002 4.92 0 11.36-3.506 17.87-9.588 6.512 6.046 12.952 9.516 17.871 9.516 1.503 0 2.862-.322 4.043-1.001 5.026-2.898 6.153-11.932 3.56-23.273 11.09-3.417 18.335-8.926 18.335-14.722ZM64.47 28.077a80.535 80.535 0 0 1-2.416 7.066 84.645 84.645 0 0 0-2.343-4.293 96.686 96.686 0 0 0-2.576-4.186 80.7 80.7 0 0 1 7.334 1.413ZM56.276 47.13c-1.396 2.414-2.827 4.704-4.312 6.833a93.055 93.055 0 0 1-8.085.358 100.2 100.2 0 0 1-8.05-.34 98.57 98.57 0 0 1-4.329-6.798 93.188 93.188 0 0 1-3.72-7.12 93.292 93.292 0 0 1 3.702-7.137c1.396-2.415 2.827-4.704 4.311-6.833a93.095 93.095 0 0 1 8.086-.358c2.701 0 5.402.125 8.05.34a98.59 98.59 0 0 1 4.329 6.797 93.207 93.207 0 0 1 3.72 7.12 100.176 100.176 0 0 1-3.702 7.138Zm5.777-2.326a76.64 76.64 0 0 1 2.47 7.12 80.238 80.238 0 0 1-7.37 1.43 98.717 98.717 0 0 0 2.575-4.239c.823-1.431 1.592-2.88 2.325-4.311ZM43.916 63.89a73.775 73.775 0 0 1-4.973-5.724c1.61.071 3.256.125 4.92.125 1.68 0 3.344-.036 4.972-.125a69.846 69.846 0 0 1-4.92 5.724Zm-13.31-10.536a80.595 80.595 0 0 1-7.333-1.414 80.533 80.533 0 0 1 2.415-7.065 84.6 84.6 0 0 0 2.343 4.293 118.4 118.4 0 0 0 2.576 4.186Zm13.22-37.226a73.714 73.714 0 0 1 4.973 5.724 110.82 110.82 0 0 0-4.919-.125 90.93 90.93 0 0 0-4.973.125 69.809 69.809 0 0 1 4.92-5.724ZM30.59 26.664a98.757 98.757 0 0 0-4.901 8.533 76.662 76.662 0 0 1-2.469-7.12 86.873 86.873 0 0 1 7.37-1.413ZM14.4 49.06c-6.332-2.7-10.429-6.243-10.429-9.051 0-2.809 4.097-6.368 10.43-9.052 1.537-.661 3.219-1.252 4.954-1.806 1.02 3.506 2.361 7.155 4.025 10.894-1.646 3.72-2.97 7.352-3.971 10.84A54.326 54.326 0 0 1 14.4 49.06Zm9.624 25.563c-2.433-1.395-3.488-6.708-2.665-13.542.196-1.681.518-3.452.912-5.259 3.506.859 7.334 1.52 11.359 1.95 2.415 3.31 4.92 6.315 7.441 8.944-5.831 5.42-11.305 8.39-15.026 8.39-.805-.018-1.484-.18-2.021-.483Zm42.431-13.631c.84 6.833-.197 12.146-2.612 13.56-.536.321-1.234.464-2.057.464-3.703 0-9.194-2.951-15.026-8.336a84.488 84.488 0 0 0 7.388-8.926c4.043-.43 7.87-1.091 11.377-1.968.411 1.807.733 3.542.93 5.206Zm6.887-11.932c-1.538.662-3.22 1.253-4.955 1.807-1.02-3.506-2.361-7.155-4.025-10.894 1.646-3.72 2.97-7.352 3.971-10.84a56.71 56.71 0 0 1 5.027 1.825c6.332 2.7 10.429 6.242 10.429 9.05-.018 2.81-4.115 6.37-10.447 9.052Z"/>
  <path fill="#81D8F7" d="M43.862 48.184a8.175 8.175 0 1 0 0-16.35 8.175 8.175 0 0 0 0 16.35Z"/>
</svg>
